<?xml version="1.0" encoding="iso-8859-1"?>
<!-- Generator: Adobe Illustrator 19.0.0, SVG Export Plug-In . SVG Version: 6.00 Build 0)  -->
<svg version="1.1" id="Capa_1" xmlns="http://www.w3.org/2000/svg" xmlns:xlink="http://www.w3.org/1999/xlink" x="0px" y="0px"
	 viewBox="0 0 512 512" style="enable-background:new 0 0 512 512;" xml:space="preserve" fill="blue">
<g>
	<g>
		<g>
			<path d="M486.4,179.196c-14.132,0.015-25.585,11.468-25.6,25.6v1.652l-34.133,7.421V59.729l-0.001-0.002
				c-0.044-32.97-26.763-59.684-59.733-59.723h-307.2c-0.069,0-0.127,0.037-0.195,0.04C26.619,0.102-0.028,26.819,0,59.738v127.991
				c-0.001,2.263,0.898,4.434,2.499,6.035c1.6,1.6,3.771,2.499,6.035,2.499H102.4v290.133c0.015,14.132,11.468,25.585,25.6,25.6
				h273.067c14.132-0.015,25.585-11.468,25.6-25.6V366.39l34.133,7.421v1.652c0,14.138,11.461,25.6,25.6,25.6s25.6-11.462,25.6-25.6
				V204.796C511.985,190.664,500.532,179.211,486.4,179.196z M102.4,179.196H17.067V59.738c-0.004-11.54,4.666-22.59,12.945-30.629
				c8.279-8.039,19.462-12.382,30.996-12.038c23.552,1.473,41.783,21.205,41.392,44.8V179.196z M409.6,486.396
				c-0.003,4.712-3.822,8.53-8.533,8.533H128c-4.711-0.005-8.529-3.822-8.533-8.533V61.871c-0.019-16.857-6.81-33-18.848-44.8
				h266.315c23.553,0.028,42.639,19.114,42.667,42.667v157.84L281.396,245.45c-1.047-13.696-12.742-24.11-26.468-23.569
				c-13.726,0.542-24.564,11.845-24.528,25.581h-51.2c-4.713,0-8.533,3.82-8.533,8.533c0,4.713,3.82,8.533,8.533,8.533h51.2v25.6
				h-51.2c-4.713,0-8.533,3.82-8.533,8.533s3.82,8.533,8.533,8.533h51.2v25.6h-51.2c-4.713,0-8.533,3.821-8.533,8.533
				s3.82,8.533,8.533,8.533h57.858c6.786,7.639,17.489,10.47,27.164,7.184c9.676-3.285,16.442-12.047,17.174-22.239l17.27,3.755
				v15.824c0.001,12.006,8.353,22.395,20.079,24.975l42.65,9.458c7.576,1.7,15.515-0.138,21.572-4.996
				c6.058-4.857,9.578-12.206,9.566-19.971v-4.884l17.067,3.71V486.396z M264.533,247.462v85.333c0,4.713-3.82,8.533-8.533,8.533
				c-4.713,0-8.533-3.821-8.533-8.533v-85.333c0-4.713,3.82-8.533,8.533-8.533C260.713,238.929,264.533,242.75,264.533,247.462z
				 M315.733,354.387v-12.113l59.733,12.985v8.595c0.011,2.596-1.165,5.054-3.191,6.675c-2,1.636-4.651,2.24-7.163,1.633
				l-42.608-9.45C318.575,361.867,315.761,358.406,315.733,354.387z M460.8,356.337l-179.2-38.956v-54.504l179.2-38.956V356.337z
				 M494.933,375.462c0,4.713-3.82,8.533-8.533,8.533s-8.533-3.82-8.533-8.533V204.796c0-4.713,3.82-8.533,8.533-8.533
				s8.533,3.82,8.533,8.533V375.462z"/>
			<path d="M264.533,196.262c42.415,0,76.8-34.385,76.8-76.8s-34.385-76.8-76.8-76.8s-76.8,34.385-76.8,76.8
				C187.781,161.858,222.138,196.215,264.533,196.262z M290.133,173.35c-16.177,7.794-35.023,7.794-51.2,0v-7.637
				c1.52-12.687,12.878-21.849,25.6-20.65c6.797-0.124,13.405,2.234,18.587,6.633c4.326,3.381,6.901,8.528,7.013,14.017V173.35z
				 M247.467,110.929c0-9.426,7.641-17.067,17.067-17.067c9.426,0,17.067,7.641,17.067,17.067s-7.641,17.067-17.067,17.067
				C255.112,127.985,247.477,120.35,247.467,110.929z M209.339,96.598c9.242-22.326,31.03-36.881,55.194-36.869
				c24.165-0.012,45.954,14.543,55.195,36.871s4.112,48.025-12.993,65.094c-1.105-8.969-5.58-17.182-12.518-22.973
				c-1.689-1.434-3.491-2.729-5.388-3.873c13.2-13.37,13.114-34.894-0.192-48.159s-34.83-13.284-48.159-0.042
				s-13.453,34.765-0.276,48.158c-9.753,5.76-16.337,15.663-17.875,26.884C205.224,144.62,200.098,118.924,209.339,96.598z"/>
			<path d="M179.2,392.529h102.4c4.713,0,8.533-3.82,8.533-8.533s-3.82-8.533-8.533-8.533H179.2c-4.713,0-8.533,3.82-8.533,8.533
				S174.487,392.529,179.2,392.529z"/>
			<path d="M349.867,418.129H179.2c-4.713,0-8.533,3.82-8.533,8.533s3.82,8.533,8.533,8.533h170.667c4.713,0,8.533-3.82,8.533-8.533
				S354.58,418.129,349.867,418.129z"/>
		</g>
	</g>
</g>
</svg>
