<?xml version="1.0" encoding="iso-8859-1"?>
<!-- Generator: Adobe Illustrator 19.0.0, SVG Export Plug-In . SVG Version: 6.00 Build 0)  -->
<svg version="1.1" id="Capa_1" xmlns="http://www.w3.org/2000/svg" xmlns:xlink="http://www.w3.org/1999/xlink" x="0px" y="0px"
	 viewBox="0 0 512.013 512.013" style="enable-background:new 0 0 512.013 512.013;" xml:space="preserve">
<g>
	<g>
		<g>
			<path d="M508.841,99.685C495.634,41.368,443.794-0.024,384,0.007c-52.137,0.072-99.033,31.727-118.597,80.054
				c-35.396-30.364-85.231-37.34-127.604-17.864c-42.373,19.477-69.529,61.841-69.533,108.476
				c0.017,11.948-1.232,23.865-3.725,35.55c-6.712,30.575-22.317,88.033-51.446,129.233c-5.454,7.563-6.131,17.571-1.746,25.8
				c4.532,8.77,13.595,14.26,23.467,14.217l84.662-0.058l-0.003,0.015c-31.204,18.783-85.426,47.96-86.33,48.461
				C12.65,436.278,0.089,458.45,0,482.398v21.075c-0.001,2.263,0.898,4.434,2.499,6.035c1.6,1.6,3.771,2.499,6.035,2.499h358.4
				c2.263,0.001,4.434-0.898,6.035-2.499c1.6-1.6,2.499-3.771,2.499-6.035v-21.075c-0.122-24.087-12.83-46.357-33.504-58.717
				c-0.546-0.292-54.792-29.475-85.963-48.208h84.65c9.871,0.044,18.935-5.447,23.467-14.217c4.384-8.219,3.712-18.217-1.733-25.775
				c-19.521-29.955-34.154-62.824-43.351-97.375c5.906,3.508,12.086,6.532,18.48,9.042l39.496,56.417
				c1.54,2.205,4.032,3.552,6.721,3.633c0.088,0.008,0.179,0.008,0.271,0.008c2.591,0,5.043-1.177,6.663-3.2l48.463-60.584
				C493.098,217.689,522.048,158.002,508.841,99.685z M333.521,438.507c15.379,9.291,24.807,25.924,24.879,43.892v12.542H17.067
				v-12.542c0.04-17.83,9.321-34.364,24.521-43.683c0.512-0.274,48.73-26.217,80.714-45.104
				c7.92,24.751,30.911,41.559,56.898,41.596h17.067c25.987-0.036,48.979-16.845,56.898-41.596
				C285.172,412.511,333.345,438.428,333.521,438.507z M348.454,345.34L348.454,345.34c1.702,2.376,1.897,5.516,0.5,8.083
				c-1.59,3.11-4.812,5.044-8.304,4.983H256c-4.385-0.23-8.673,1.351-11.858,4.374c-3.186,3.023-4.99,7.221-4.99,11.612
				c-0.097,0.355-0.17,0.716-0.218,1.08c-0.028,23.553-19.114,42.639-42.667,42.667H179.2
				c-23.553-0.028-42.639-19.114-42.667-42.667c-0.048-0.366-0.121-0.728-0.219-1.084c-0.001-4.391-1.805-8.588-4.991-11.61
				c-3.186-3.022-7.472-4.602-11.857-4.372h-84.65c-3.493,0.061-6.715-1.873-8.304-4.983c-1.398-2.574-1.2-5.721,0.508-8.1
				c30.875-43.675,47.204-103.608,54.196-135.475c2.753-12.876,4.133-26.008,4.117-39.175c-0.02-41.32,24.807-78.599,62.94-94.509
				s82.094-7.33,111.446,21.753c-11.149,44.977,3.157,92.453,37.301,123.781C304.304,251.709,320.252,305.382,348.454,345.34z
				 M430.146,228.782L430.146,228.782c-1.208,0.558-2.27,1.388-3.104,2.425l-42.588,53.233l-34.467-49.233
				c-1.001-1.433-2.417-2.524-4.058-3.125c-49.753-18.194-79.695-69.032-71.48-121.367s52.294-91.554,105.229-93.628
				c52.935-2.074,99.947,33.576,112.232,85.107C504.195,153.725,478.323,206.751,430.146,228.782z"/>
			<path d="M408.129,68.34c-8.719,0.407-17.119,3.401-24.129,8.6c-7.01-5.2-15.41-8.193-24.129-8.6
				c-11.795-0.788-23.402,3.272-32.133,11.242c-15.467,15.108-16.108,43.15-1.737,71.217c10.771,22.558,38.042,42.658,53.342,52.625
				c2.832,1.844,6.485,1.844,9.317,0c15.3-9.967,42.571-30.067,53.237-52.408c14.475-28.283,13.833-56.325-1.629-71.433
				C431.528,71.621,419.925,67.562,408.129,68.34z M426.6,143.448c-10.588,17.394-25.197,31.993-42.6,42.567
				c-17.468-10.619-32.117-25.295-42.704-42.783c-10.658-20.817-11.329-41.975-1.629-51.45c4.834-4.323,11.142-6.629,17.625-6.442
				c0.55,0,1.104,0.009,1.658,0.042c7.096,0.206,13.786,3.359,18.462,8.7c1.675,1.877,4.072,2.95,6.587,2.95s4.912-1.073,6.587-2.95
				c9.958-10.707,26.565-11.719,37.75-2.3C438.033,101.256,437.363,122.415,426.6,143.448z"/>
		</g>
	</g>
</g>
<g>
</g>
<g>
</g>
<g>
</g>
<g>
</g>
<g>
</g>
<g>
</g>
<g>
</g>
<g>
</g>
<g>
</g>
<g>
</g>
<g>
</g>
<g>
</g>
<g>
</g>
<g>
</g>
<g>
</g>
</svg>
