<?xml version="1.0" encoding="iso-8859-1"?>
<!-- Generator: Adobe Illustrator 19.0.0, SVG Export Plug-In . SVG Version: 6.00 Build 0)  -->
<svg version="1.1" id="Capa_1" xmlns="http://www.w3.org/2000/svg" xmlns:xlink="http://www.w3.org/1999/xlink" x="0px" y="0px"
	 viewBox="0 0 512 512" style="enable-background:new 0 0 512 512;" xml:space="preserve">
<g>
	<g>
		<g>
			<path d="M256,110.933c-80.118,0-145.067,64.949-145.067,145.067S175.882,401.067,256,401.067S401.067,336.118,401.067,256
				C400.977,175.919,336.081,111.023,256,110.933z M256,384c-70.692,0-128-57.308-128-128s57.308-128,128-128s128,57.308,128,128
				C383.923,326.66,326.661,383.923,256,384z"/>
			<path d="M511.283,237.908c-0.296-3.264-2.432-6.071-5.5-7.225l-49.766-18.667C454.7,206,453.092,200,451.209,194.092
				l33.766-41.067c2.085-2.531,2.532-6.034,1.15-9.008c-2.283-4.917-5.033-10.15-8.425-16.025c-3.5-6.042-6.567-10.908-9.667-15.3
				c-1.885-2.681-5.142-4.042-8.375-3.5l-52.5,8.717c-4.15-4.542-8.525-8.917-13.067-13.067l8.717-52.5
				c0.538-3.232-0.822-6.487-3.5-8.375c-4.392-3.1-9.258-6.167-15.308-9.675c-5.867-3.383-11.1-6.133-16.017-8.417
				c-2.974-1.383-6.477-0.936-9.008,1.15l-41.067,33.766C312,58.908,306,57.3,299.983,55.983L281.317,6.217
				c-1.154-3.067-3.961-5.204-7.225-5.5C268.75,0.233,262.833,0,256,0c-6.833,0-12.75,0.233-18.092,0.717
				c-3.264,0.296-6.071,2.433-7.225,5.5l-18.667,49.766C206,57.3,200,58.908,194.092,60.792l-41.067-33.766
				c-2.531-2.086-6.034-2.533-9.008-1.15c-4.917,2.283-10.15,5.033-16.025,8.425c-6.042,3.5-10.908,6.567-15.3,9.667
				c-2.678,1.888-4.038,5.143-3.5,8.375l8.717,52.5c-4.542,4.15-8.917,8.525-13.067,13.067l-52.5-8.717
				c-3.229-0.514-6.472,0.841-8.375,3.5c-3.1,4.392-6.167,9.259-9.675,15.309c-3.383,5.867-6.133,11.1-8.417,16.017
				c-1.381,2.974-0.934,6.476,1.15,9.008l33.766,41.067C58.908,200,57.3,206,55.983,212.017L6.217,230.683
				c-3.067,1.154-5.204,3.961-5.5,7.225C0.233,243.25,0,249.167,0,256s0.233,12.75,0.717,18.092c0.296,3.264,2.433,6.071,5.5,7.225
				l49.766,18.667C57.3,306,58.908,312,60.792,317.908l-33.766,41.067c-2.085,2.531-2.532,6.034-1.15,9.008
				c2.283,4.917,5.033,10.15,8.425,16.025c3.5,6.042,6.567,10.908,9.667,15.3c1.886,2.68,5.143,4.041,8.375,3.5l52.5-8.717
				c4.15,4.542,8.525,8.917,13.067,13.067l-8.717,52.5c-0.539,3.236,0.825,6.495,3.508,8.383c4.392,3.083,9.392,6.242,15.3,9.667
				c5.867,3.383,11.1,6.133,16.017,8.417c2.973,1.387,6.479,0.94,9.008-1.15l41.067-33.766c5.908,1.883,11.908,3.492,17.925,4.808
				l18.667,49.766c1.154,3.067,3.961,5.204,7.225,5.5c5.342,0.483,11.258,0.717,18.092,0.717c6.833,0,12.75-0.233,18.092-0.717
				c3.264-0.296,6.071-2.433,7.225-5.5l18.667-49.766c6.017-1.317,12.017-2.925,17.925-4.808l41.067,33.766
				c2.529,2.09,6.035,2.537,9.008,1.15c4.917-2.283,10.15-5.033,16.025-8.425c5.9-3.417,10.9-6.575,15.292-9.658
				c2.683-1.888,4.047-5.147,3.508-8.383l-8.717-52.5c4.542-4.15,8.917-8.525,13.067-13.067l52.5,8.717
				c3.232,0.535,6.485-0.825,8.375-3.5c3.1-4.392,6.167-9.259,9.675-15.309c3.383-5.867,6.133-11.1,8.417-16.017
				c1.382-2.974,0.935-6.477-1.15-9.008l-33.766-41.067c1.883-5.908,3.492-11.908,4.808-17.925l49.766-18.667
				c3.067-1.154,5.204-3.961,5.5-7.225C511.767,268.75,512,262.833,512,256S511.767,243.25,511.283,237.908z M494.658,267.258
				l-49.042,18.4c-2.777,1.044-4.812,3.454-5.375,6.367c-1.65,8.444-3.881,16.763-6.675,24.9c-0.968,2.801-0.409,5.904,1.475,8.192
				l33.275,40.467c-1.567,3.083-3.35,6.35-5.383,9.875c-2.1,3.625-4.017,6.775-5.875,9.617l-51.734-8.584
				c-2.921-0.479-5.882,0.582-7.834,2.808c-5.644,6.469-11.722,12.547-18.192,18.192c-2.231,1.947-3.294,4.912-2.808,7.834
				l8.583,51.733c-2.883,1.875-6.059,3.817-9.609,5.867c-3.533,2.042-6.8,3.825-9.883,5.392l-40.467-33.275
				c-2.284-1.891-5.391-2.451-8.192-1.475c-8.137,2.794-16.457,5.025-24.9,6.675c-2.912,0.563-5.323,2.598-6.367,5.375l-18.4,49.042
				c-6.867,0.367-15.65,0.367-22.517,0l-18.399-49.042c-1.044-2.777-3.454-4.812-6.367-5.375c-8.444-1.65-16.763-3.881-24.9-6.675
				c-2.801-0.976-5.908-0.416-8.192,1.475l-40.466,33.275c-3.083-1.567-6.35-3.35-9.875-5.383c-3.55-2.058-6.733-4-9.617-5.875
				l8.583-51.733c0.486-2.922-0.577-5.886-2.808-7.834c-6.469-5.644-12.547-11.722-18.191-18.191
				c-1.955-2.22-4.913-3.28-7.834-2.808l-51.734,8.583c-1.85-2.842-3.775-5.983-5.867-9.609c-2.042-3.533-3.825-6.8-5.392-9.883
				l33.275-40.467c1.884-2.288,2.443-5.391,1.475-8.192c-2.794-8.137-5.025-16.457-6.675-24.9c-0.563-2.912-2.598-5.323-5.375-6.367
				l-49.042-18.399c-0.183-3.433-0.275-7.158-0.275-11.258c0-4.1,0.092-7.825,0.275-11.258l49.042-18.4
				c2.777-1.044,4.812-3.454,5.375-6.367c1.65-8.444,3.881-16.763,6.675-24.9c0.968-2.801,0.409-5.904-1.475-8.192l-33.275-40.466
				c1.567-3.083,3.35-6.35,5.383-9.875c2.1-3.625,4.017-6.775,5.875-9.617l51.733,8.583c2.919,0.464,5.874-0.595,7.834-2.808
				c5.644-6.469,11.722-12.547,18.191-18.191c2.231-1.947,3.294-4.912,2.808-7.834l-8.583-51.734
				c2.842-1.85,5.983-3.775,9.609-5.867c3.533-2.042,6.8-3.825,9.883-5.392l40.467,33.275c2.284,1.891,5.391,2.451,8.192,1.475
				c8.137-2.794,16.457-5.025,24.9-6.675c2.912-0.563,5.323-2.598,6.367-5.375l18.4-49.042c6.867-0.367,15.65-0.367,22.517,0
				l18.399,49.042c1.044,2.777,3.454,4.812,6.367,5.375c8.444,1.65,16.763,3.881,24.9,6.675c2.801,0.976,5.908,0.416,8.192-1.475
				l40.466-33.275c3.083,1.567,6.35,3.35,9.875,5.383c3.625,2.1,6.775,4.017,9.617,5.875l-8.584,51.734
				c-0.486,2.922,0.577,5.886,2.808,7.834c6.469,5.644,12.547,11.722,18.192,18.192c1.956,2.219,4.913,3.279,7.834,2.808
				l51.733-8.583c1.85,2.842,3.775,5.983,5.867,9.609c2.042,3.533,3.825,6.8,5.392,9.883l-33.275,40.467
				c-1.884,2.288-2.443,5.391-1.475,8.192c2.794,8.137,5.025,16.457,6.675,24.9c0.563,2.912,2.598,5.323,5.375,6.367l49.042,18.4
				c0.183,3.432,0.275,7.157,0.275,11.257C494.933,260.1,494.842,263.825,494.658,267.258z"/>
			<path d="M256,290.133c-18.851,0-34.133,15.282-34.133,34.133c0,18.851,15.282,34.133,34.133,34.133
				c18.851,0,34.133-15.282,34.133-34.133C290.115,305.423,274.844,290.152,256,290.133z M256,341.333
				c-9.426,0-17.067-7.641-17.067-17.067S246.574,307.2,256,307.2c9.426,0,17.067,7.641,17.067,17.067
				C273.055,333.687,265.421,341.321,256,341.333z"/>
			<path d="M256,273.067c14.132-0.015,25.585-11.468,25.6-25.6V179.2c0-14.138-11.462-25.6-25.6-25.6
				c-14.139,0-25.6,11.461-25.6,25.6v68.267C230.416,261.599,241.868,273.051,256,273.067z M247.467,179.2
				c0-4.713,3.82-8.533,8.533-8.533c4.713,0,8.533,3.82,8.533,8.533v68.267c0,4.713-3.82,8.533-8.533,8.533
				c-4.713,0-8.533-3.82-8.533-8.533V179.2z"/>
		</g>
	</g>
</g>
<g>
</g>
<g>
</g>
<g>
</g>
<g>
</g>
<g>
</g>
<g>
</g>
<g>
</g>
<g>
</g>
<g>
</g>
<g>
</g>
<g>
</g>
<g>
</g>
<g>
</g>
<g>
</g>
<g>
</g>
</svg>
