<?xml version="1.0" encoding="iso-8859-1"?>
<!-- Generator: Adobe Illustrator 19.0.0, SVG Export Plug-In . SVG Version: 6.00 Build 0)  -->
<svg version="1.1" id="Capa_1" xmlns="http://www.w3.org/2000/svg" xmlns:xlink="http://www.w3.org/1999/xlink" x="0px" y="0px"
	 viewBox="0 0 512 512" style="enable-background:new 0 0 512 512;" xml:space="preserve">
<g>
	<g>
		<path d="M453.645,127.105c-12.975-15.654-32.252-24.71-52.584-24.704c-11.994-0.009-23.774,3.172-34.133,9.217v-94.55
			C366.917,7.646,359.282,0.011,349.861,0h-91.825c-6.617-0.032-12.65,3.783-15.458,9.775c-2.828,5.825-2.015,12.762,2.083,17.775
			c16.49,20.51,14.795,50.169-3.925,68.667c-14.805,14.579-36.952,18.769-56.06,10.606c-19.108-8.164-31.39-27.062-31.09-47.839
			c0.124-11.312,4.042-22.255,11.125-31.075c4.189-5.205,5.001-12.36,2.083-18.371C163.98,3.676,158.038-0.039,151.535,0H59.71
			c-9.421,0.011-17.056,7.645-17.067,17.067v94.55c0.016,6.176,3.348,11.867,8.725,14.904c5.144,2.991,11.505,2.957,16.617-0.087
			c7.86-4.547,16.777-6.95,25.858-6.967c26.217-0.017,48.212,19.771,50.958,45.844c2.746,26.073-14.646,50.008-40.291,55.452
			c-12.384,2.646-25.309,0.604-36.275-5.729c-5.172-3.08-11.609-3.108-16.808-0.075c-5.421,3.097-8.771,8.857-8.783,15.1v94.208
			c0.011,9.421,7.645,17.056,17.067,17.067h170.694l0.006,22.767c0,0.071-0.683,7.325-2.642,19.104
			c-7.61,40.322-7.759,81.699-0.442,122.075c0.856,3.922,4.327,6.719,8.342,6.721h150.783c3.785,0.001,7.117-2.493,8.183-6.125
			l36.892-125.442c4.217-10.796,5.68-22.472,4.258-33.975c-3.998-30.61-25.539-71.986-47.337-108.779
			c8.819,1.659,17.876,1.594,26.671-0.192c27.062-5.546,48.05-26.961,53.05-54.129C471.944,163.38,466.62,142.758,453.645,127.105z
			 M418.861,348.642c1.052,8.918-0.143,17.957-3.475,26.296l-35.317,119.996h-137.4c-5.446-36.137-4.796-72.932,1.925-108.854
			c2.075-12.538,2.783-20.1,2.85-21.196v-32.043l0.009-0.041l-0.009-0.041V243.03c0.012-11.684,9.482-21.153,21.167-21.163
			c5.715-0.009,11.212,2.199,15.333,6.158c3.985,3.979,6.232,9.373,6.25,15.004v111.958c-0.158,10.087,3.725,19.818,10.783,27.025
			c7.631,7.199,17.726,11.208,28.217,11.204c10.105,0.041,19.8-3.991,26.897-11.184c7.097-7.193,10.997-16.942,10.82-27.045v-22.105
			l0.017-0.083v-97.864C383.748,262.51,414.496,315.223,418.861,348.642z M307.26,354.988v-13.654h42.583v13.654
			c0.128,5.562-1.99,10.941-5.875,14.923c-3.886,3.982-9.211,6.231-14.775,6.239c-5.966-0.002-11.719-2.214-16.15-6.208
			C309.197,365.929,307.115,360.545,307.26,354.988z M433.85,209.991c-16.543,13.808-39.959,15.784-58.581,4.942
			c-1.166-0.674-2.416-1.192-3.717-1.542c-0.325-0.114-0.656-0.209-0.992-0.283c-5.005-1.07-10.224,0.188-14.192,3.421
			c-4.116,3.284-6.511,8.264-6.508,13.529v0.89l-0.017,0.135v93.183H307.26V243.03c-0.011-10.135-4.039-19.853-11.2-27.025
			c-7.318-7.203-17.182-11.229-27.45-11.204c-21.105,0.022-38.209,17.125-38.233,38.229l0.023,81.237H59.71l-0.083-94.496
			c14.605,8.392,31.781,11.138,48.275,7.717c27.063-5.55,48.052-26.964,53.058-54.133c3.718-20.085-1.68-40.784-14.733-56.496
			c-21.277-25.475-57.815-31.911-86.517-15.242v-94.55l91.625,0.237c-9.439,11.774-14.656,26.373-14.816,41.463
			c-0.027,37.426,29.7,68.094,67.108,69.233c18.36,0.466,36.106-6.63,49.084-19.625c24.93-24.566,27.23-64.011,5.325-91.308h91.825
			v94.55c0.018,6.173,3.345,11.862,8.717,14.904c5.149,2.982,11.508,2.949,16.625-0.087c7.86-4.547,16.777-6.95,25.858-6.967
			c21.548,0.011,40.784,13.51,48.123,33.77C456.522,173.497,450.393,196.183,433.85,209.991z"/>
	</g>
</g>
<g>
</g>
<g>
</g>
<g>
</g>
<g>
</g>
<g>
</g>
<g>
</g>
<g>
</g>
<g>
</g>
<g>
</g>
<g>
</g>
<g>
</g>
<g>
</g>
<g>
</g>
<g>
</g>
<g>
</g>
</svg>
